<svg id="Layer_1" data-name="Layer 1" xmlns="http://www.w3.org/2000/svg" viewBox="0 0 455.22 455.21"><defs><style>.cls-1{fill:#4b4d96;}.cls-2{fill:#53addf;}.cls-3{fill:#9dd6f2;}.cls-4{fill:#59c0eb;}.cls-5{fill:#3c8cc7;}.cls-6{fill:#6bc5ef;}.cls-7{fill:#82c9ef;}.cls-8{fill:#9fd0ef;}.cls-9{fill:#afd6f0;}.cls-10{fill:none;stroke:#afd6f0;stroke-linecap:round;stroke-linejoin:round;stroke-width:0;}</style></defs><path class="cls-1" d="M250.77,31.42l-1.15,0c.9,0,1.83,0,2.74,0Z" transform="translate(-23.08 -22.42)"/><path class="cls-1" d="M250.62,468.64h1.1c-.88,0-1.74,0-2.62,0Z" transform="translate(-23.08 -22.42)"/><polygon class="cls-2" points="401.29 360.37 402.27 359.07 401.53 360.04 401.29 360.37"/><polygon class="cls-2" points="421.86 327.99 422.41 326.92 422.05 327.61 421.86 327.99"/><path class="cls-2" d="M468.59,267.42c0-.46.09-.93.11-1.39l-.07.91C468.61,267.1,468.6,267.26,468.59,267.42Z" transform="translate(-23.08 -22.42)"/><polygon class="cls-2" points="11.03 257.23 11.19 258.38 11.15 257.99 11.03 257.23"/><polygon class="cls-2" points="48.78 353.4 49.91 354.96 49.45 354.33 48.78 353.4"/><polygon class="cls-2" points="423.09 325.54 423.85 324.02 423.73 324.24 423.09 325.54"/><polygon class="cls-2" points="414.23 341.52 414.52 341.03 414.47 341.13 414.23 341.52"/><path class="cls-2" d="M467.5,277.91l-.21,1.77c.31-2.24.58-4.49.81-6.73l-.22,1.78C467.75,275.8,467.64,276.87,467.5,277.91Z" transform="translate(-23.08 -22.42)"/><path class="cls-2" d="M102.62,203.43c-11.34-12.91-18.29-27.85-19.48-44.08-2.34-32,18.24-62.31,52.31-83.67a5.65,5.65,0,0,1,1.07-5,29.75,29.75,0,0,1,5.23-5.24,64.34,64.34,0,0,1,12.83-8.34c1.09-.58,2.21-1.14,3.35-1.65v0c1.4-.66,2.82-1.31,4.22-1.93A101,101,0,0,1,203.8,45a115.12,115.12,0,0,1,18.64,1.57c3.48-.42,7-.75,10.55-1,86.87-6.33,160.64,34.36,164.76,90.89,2.05,28.1-13.53,54.88-40.41,75.42L381.14,235l1.73-.74c6.82-3.07,13.39-6.69,20-10.16L400,213l7.91-41.22,20.92,40.86c1.22-.35,2.48-.67,3.76-.91a219,219,0,0,0,22-40.46,217.72,217.72,0,0,0-58.61-84.62c-1.37-1.2-2.73-2.4-4.12-3.55L390.46,82c-.94-.76-1.86-1.53-2.81-2.31L386,78.35c-.85-.68-1.71-1.38-2.58-2L381.62,75c-.83-.62-1.67-1.24-2.51-1.84l-1.84-1.33c-.84-.61-1.68-1.19-2.51-1.78l-1.9-1.29c-.84-.57-1.69-1.12-2.52-1.67l-1.93-1.25-2.55-1.62L363.93,63c-.88-.57-1.76-1.07-2.63-1.58l-1.9-1.11c-.9-.53-1.82-1-2.72-1.53l-1.87-1c-.95-.52-1.92-1-2.9-1.53l-1.72-.91c-1.1-.55-2.19-1.11-3.3-1.64L345.54,53c-3.13-1.52-6.3-2.94-9.47-4.29l-1.35-.54c-1.16-.46-2.29-1-3.43-1.42l-1.75-.67c-1-.37-2-.78-3.08-1.17l-1.91-.7-2.93-1-2-.66c-1-.33-1.94-.62-2.89-.93l-2-.64c-1-.3-1.92-.58-2.88-.86l-2.06-.59c-1-.27-1.93-.5-2.89-.77l-2.06-.55-2.94-.72-2-.49c-1-.22-2-.46-3-.67l-2-.39c-1.07-.23-2.13-.45-3.19-.64l-1.8-.37c-1.21-.21-2.42-.4-3.61-.59l-1.41-.22c-3.35-.55-6.71-1-10.11-1.35l-1.46-.15c-1.18-.13-2.38-.25-3.57-.35l-1.88-.14c-1.05-.1-2.1-.18-3.16-.24l-2.06-.1c-1-.07-2-.12-3-.16l-2.13-.06c-1,0-2-.06-2.93-.08l-2.16,0c-.91,0-1.84,0-2.74,0s-2,0-3,0c-.82,0-1.65,0-2.48.05l-3,.11-2.44.12c-1,.05-2.06.11-3.08.21-.79,0-1.57.1-2.36.14l-3.21.29c-.74.06-1.48.16-2.23.22-1.16.12-2.35.28-3.53.41l-1.88.22c-1.7.23-3.39.47-5.08.74l-.64.1c-1.69.25-3.38.54-5.05.81l-1.86.41c-1.18.21-2.34.42-3.51.66l-2.16.48c-1.06.22-2.11.46-3.18.7-.77.18-1.52.38-2.29.55-1,.27-2,.49-3,.74-.77.22-1.56.44-2.33.64l-3,.82-2.35.7c-1,.29-1.93.58-2.9.89l-2.36.75-2.88,1-2.35.8-2.85,1.05-2.3.87c-1,.35-1.93.75-2.88,1.12-.75.3-1.51.6-2.26.92-1,.4-1.94.82-2.91,1.25l-2.17.91c-1,.43-2,.92-3,1.36l-2,.95c-1.1.52-2.19,1.06-3.28,1.59l-1.69.84c-1.61.81-3.22,1.63-4.8,2.5l-.25.15c-1.6.83-3.19,1.71-4.74,2.59l-1.64,1c-1.06.61-2.13,1.21-3.18,1.86l-1.91,1.2c-1,.58-1.9,1.18-2.85,1.76l-2,1.32L128.05,69,126,70.42c-.86.64-1.72,1.22-2.58,1.85l-2,1.48-2.53,1.87-2,1.55c-.83.64-1.65,1.29-2.45,2l-2,1.61c-.81.67-1.63,1.35-2.43,2L108,84.42c-.83.7-1.62,1.41-2.44,2.12l-1.88,1.71c-.81.74-1.61,1.47-2.42,2.26l-1.8,1.69c-.82.77-1.65,1.59-2.47,2.41l-1.66,1.65c-.9.9-1.8,1.84-2.69,2.78l-1.35,1.41c-1.35,1.43-2.66,2.89-4,4.33a218.52,218.52,0,0,0-38.77,61.9A217.44,217.44,0,0,0,97.72,242.2Z" transform="translate(-23.08 -22.42)"/><polygon class="cls-2" points="411.04 346.57 411.3 346.16 411.09 346.47 411.04 346.57"/><polygon class="cls-2" points="413.74 342.31 414.18 341.61 413.87 342.09 413.74 342.31"/><path class="cls-2" d="M452.09,335.13l.24-.56-.12.29Z" transform="translate(-23.08 -22.42)"/><polygon class="cls-2" points="45.03 347.91 45.48 348.59 45.18 348.12 45.03 347.91"/><polygon class="cls-2" points="43.01 344.78 44.27 346.74 43.79 345.97 43.01 344.78"/><polygon class="cls-2" points="40.23 340.25 40.22 340.24 40.17 340.19 40.8 341.22 40.27 340.31 40.23 340.25"/><polygon class="cls-2" points="60.66 368.73 61.11 369.28 60.88 368.99 60.66 368.73"/><path class="cls-2" d="M468.8,264.69c0-.35,0-.7.06-1.05v.15Z" transform="translate(-23.08 -22.42)"/><path class="cls-2" d="M468.87,263.37c.11-1.84.21-3.68.28-5.52-.06,1.83-.18,3.69-.28,5.54Z" transform="translate(-23.08 -22.42)"/><path class="cls-2" d="M37.76,299.4l0-.06-.34-1.44c.21,1,.46,2.08.71,3.11l-.29-1.35Z" transform="translate(-23.08 -22.42)"/><polygon class="cls-2" points="48.13 352.49 48.24 352.63 48.17 352.52 48.13 352.49"/><path class="cls-2" d="M34.4,281.66c.22,1.51.46,3,.7,4.46-.16-.9-.28-1.83-.42-2.74Z" transform="translate(-23.08 -22.42)"/><polygon class="cls-2" points="45.92 349.25 47.2 351.12 46.83 350.55 45.92 349.25"/><path class="cls-2" d="M38.44,302.33c.24,1,.49,2,.76,3.05l-.34-1.44Z" transform="translate(-23.08 -22.42)"/><polygon class="cls-2" points="16.34 283.77 16.56 284.61 16.57 284.59 16.34 283.77"/><polygon class="cls-2" points="424.12 323.46 424.06 323.61 424.89 321.91 424.76 322.14 424.12 323.46"/><polygon class="cls-2" points="425.5 320.61 425.91 319.72 425.56 320.45 425.5 320.61"/><polygon class="cls-2" points="65.66 374.45 66.58 375.47 65.9 374.71 65.66 374.45"/><path class="cls-2" d="M327.81,229.74c1.1-.22,2.21-.43,3.32-.62l.14-1.08C330.14,228.62,329,229.19,327.81,229.74Z" transform="translate(-23.08 -22.42)"/><path class="cls-2" d="M466.34,286q.33-2.07.63-4.14c-.2,1.35-.41,2.69-.63,4Z" transform="translate(-23.08 -22.42)"/><polygon class="cls-2" points="431.11 307.6 431.55 306.48 431.41 306.8 431.11 307.6"/><polygon class="cls-2" points="64.29 372.92 64.48 373.12 64.39 373.02 64.29 372.92"/><path class="cls-2" d="M74.62,379.61,74,378.8c.56.73,1.12,1.53,1.69,2.27l-.73-1Z" transform="translate(-23.08 -22.42)"/><polygon class="cls-2" points="69.83 378.91 70.51 379.61 70.11 379.2 69.83 378.91"/><path class="cls-2" d="M96,404.46l2.34,2.35-.71-.75Z" transform="translate(-23.08 -22.42)"/><polygon class="cls-2" points="67.1 376.02 69.02 378.07 68.41 377.4 67.1 376.02"/><polygon class="cls-2" points="58.42 366.07 59.69 367.58 58.96 366.68 58.42 366.07"/><polygon class="cls-2" points="394.43 368.88 395.09 368.11 394.92 368.29 394.43 368.88"/><path class="cls-2" d="M38.19,198.78c-.39,1.59-.78,3.18-1.13,4.79.23-1,.48-2.08.73-3.1C37.91,199.89,38.05,199.33,38.19,198.78Z" transform="translate(-23.08 -22.42)"/><polygon class="cls-2" points="332.55 190.72 331.86 191.22 332.83 192.91 332.55 190.72"/><path class="cls-2" d="M32.65,234.51c-.13,1.7-.22,3.42-.31,5.12l.13-1.75C32.52,236.75,32.56,235.62,32.65,234.51Z" transform="translate(-23.08 -22.42)"/><path class="cls-2" d="M32.34,240c0,.57,0,1.15-.05,1.72,0-.41,0-.81,0-1.21Z" transform="translate(-23.08 -22.42)"/><path class="cls-2" d="M32.1,249.72c0,2.2,0,4.44.1,6.66v-.24Q32.1,252.93,32.1,249.72Z" transform="translate(-23.08 -22.42)"/><path class="cls-2" d="M34.25,219.3c-.18,1.28-.35,2.54-.5,3.85l.22-1.51C34.06,220.87,34.15,220.07,34.25,219.3Z" transform="translate(-23.08 -22.42)"/><path class="cls-2" d="M32.64,265.22c.14,2,.31,4,.5,6-.16-1.75-.3-3.52-.43-5.25Z" transform="translate(-23.08 -22.42)"/><path class="cls-2" d="M42.71,182.62c-.72,2.16-1.38,4.37-2,6.56v0C41.34,187,42,184.81,42.71,182.62Z" transform="translate(-23.08 -22.42)"/><path class="cls-2" d="M143.19,67.62A24.33,24.33,0,0,0,140,70.86a15.84,15.84,0,0,0-1.1,2.71,192.34,192.34,0,0,1,32.05-15,70,70,0,0,0-13.29,1.57A28.08,28.08,0,0,0,143.19,67.62Z" transform="translate(-23.08 -22.42)"/><path class="cls-2" d="M345.37,275.7a265.75,265.75,0,0,1-26.77.38l24,10.95c1.88-.88,3.77-1.76,5.64-2.67Z" transform="translate(-23.08 -22.42)"/><path class="cls-2" d="M233.8,305.6a220.24,220.24,0,0,0,74-6.31L294.71,274a222.08,222.08,0,0,1-35.11-7.8Z" transform="translate(-23.08 -22.42)"/><polygon class="cls-2" points="62.18 370.52 63.33 371.85 62.86 371.3 62.18 370.52"/><path class="cls-3" d="M456.9,322.78l-.36,1-.06.15c-.46,1.29-.93,2.59-1.44,3.9l-.41,1.12-.44,1.11,0,.13-.47,1.14-.31.75-.57,1.43-.25.61-.22.49-.24.56-.5,1.21-.74,1.71L450,340l-.2.47-.22.46-.58,1.24-.41.89-.61,1.3-.83,1.7-.21.41-.76,1.52-.68,1.38-.55,1.07-.28.52-.16.32-.56,1.08-.79,1.44c-.41.8-.85,1.56-1.28,2.34l-.56,1-.22.42-.16.26-.08.14-.18.28c-.41.75-.83,1.49-1.27,2.22s-.85,1.43-1.27,2.17l-.53.85-.29.5-.05.08-.44.7c-.53.83-1.05,1.69-1.59,2.54l-.68,1.06-.17.25-.26.41-.64,1-.84,1.24-1.24,1.85-.49.71L430,375l-1.25,1.81-.17.23-.19.26-1.14,1.58-.83,1.13-1.11,1.48-1,1.29-.58.78-.89,1.13-.75.93,0,.06-1.28,1.6-1.28,1.56-.48.58-.27.33-.62.77-.67.77q-1.71,2-3.44,3.95c-1.3,1.51-2.63,2.93-3.95,4.35L408.75,401c-.89.93-1.78,1.86-2.68,2.77l-1.66,1.64c-.82.82-1.65,1.62-2.48,2.43l-1.8,1.7c-.78.76-1.61,1.49-2.42,2.23l-1.88,1.7c-.8.74-1.61,1.43-2.42,2.13l-2,1.65c-.81.68-1.62,1.39-2.43,2.05L387,421l-2.45,1.93-2,1.53c-.84.67-1.7,1.29-2.53,1.91l-2,1.46c-.86.62-1.72,1.25-2.59,1.84l-2,1.41-2.7,1.79-2,1.3-2.87,1.8-1.9,1.17c-1.06.65-2.13,1.26-3.2,1.88l-1.59.95c-1.61.92-3.22,1.8-4.84,2.66l-.08.07c-1.63.87-3.26,1.71-4.89,2.54l-1.64.79c-1.1.55-2.22,1.11-3.33,1.64l-2,.91c-1,.46-2,.95-3.06,1.38l-2.15.92c-1,.43-1.95.85-2.94,1.26L332,453c-1,.38-1.93.77-2.91,1.14-.75.29-1.5.58-2.26.85-1,.36-1.95.73-2.92,1.05-.77.27-1.52.55-2.28.8-1,.34-2,.65-3,1-.76.27-1.53.5-2.3.73q-1.47.49-3,.93c-.75.21-1.52.45-2.28.68-1,.27-2,.57-3,.83l-2.27.61c-1,.28-2.09.53-3.12.79-.74.16-1.45.33-2.2.54-1.1.23-2.19.48-3.3.73l-2,.43c-1.23.26-2.47.48-3.69.72l-1.68.33q-5.38,1-10.8,1.68l-1.67.19c-1.26.16-2.52.3-3.77.43l-2.06.19c-1.12.12-2.24.22-3.37.31-.76.06-1.49.12-2.23.16-1.07.08-2.16.13-3.21.2l-2.32.12-3.15.12c-.78,0-1.58,0-2.36.06l-3.11.05h-1.1l-1.52,0-2.29,0c-.92,0-1.85,0-2.79-.06-.75,0-1.51,0-2.26-.07l-2.85-.16-2.2-.11c-1-.07-2-.13-3-.22l-2.09-.15-3.24-.33-1.79-.17c-1.58-.16-3.14-.35-4.71-.58l-.65-.08c-1.56-.21-3.12-.43-4.67-.67l-1.8-.31c-1.06-.17-2.14-.36-3.22-.55l-2-.38-2.93-.57-2.16-.46c-.94-.21-1.89-.4-2.83-.63l-2.18-.52c-.93-.24-1.86-.45-2.77-.68-.73-.21-1.48-.4-2.22-.59-.9-.24-1.82-.47-2.73-.74l-2.21-.6c-.92-.28-1.82-.58-2.72-.83l-2.2-.69c-.9-.28-1.81-.59-2.72-.88l-2.14-.72c-.93-.31-1.84-.63-2.76-1l-2.09-.77c-.95-.33-1.9-.7-2.85-1.08l-2-.75c-1-.4-2.07-.84-3.09-1.27l-1.67-.69c-1.48-.63-3-1.29-4.43-1.94l-.63-.27-4.36-2-1.64-.81-3-1.5-1.88-1-2.73-1.44-2-1.09-2.6-1.46-2-1.18c-.82-.51-1.67-1-2.5-1.52l-2-1.23L133,434.29l-2-1.3-2.43-1.63-2-1.34c-.81-.59-1.63-1.16-2.44-1.72l-1.92-1.37c-.82-.59-1.63-1.21-2.45-1.81l-1.84-1.4c-.84-.64-1.68-1.31-2.53-2l-1.7-1.36c-.93-.74-1.84-1.51-2.76-2.28l-1.4-1.17c-1.39-1.15-2.77-2.33-4.11-3.54-1.68-1.5-3.3-3-4.92-4.54l-.8-.75-.55-.51-.84-.8L96,404.46c-.59-.58-1.19-1.16-1.77-1.75l-.65-.67-.68-.71-.8-.84-1.92-2.05-.53-.55-.91-1-1.19-1.33-.18-.2-1-1.07-1.14-1.33L84.2,391.7l-.45-.54-1-1.16-1.27-1.5-.78-1-.92-1.15-.63-.79-.79-1-.89-1.17-.45-.57-.72-.92-.45-.6-.19-.25c-.57-.74-1.13-1.54-1.69-2.27l-1-1.41-1.13-1.57-.54-.77-.1-.14-.94-1.37L69,371.68l-.45-.67-.44-.67-.77-1.17-1.26-2-.28-.44-.39-.64-.22-.37-.93-1.48,0,0-.19-.33-.17-.27-.63-1c-2.7-2.08-5.33-4.28-7.84-6.61l-.49-.46v0l-.94-.9-.08-.08-.92-.91-.16-.15L52,352.6l-.2-.21-.83-.86-.25-.28-.78-.82-.31-.37-.75-.81-.35-.4-.69-.81-.38-.45-.66-.8-.42-.51-.62-.78-.44-.57-.57-.75-.45-.59-.55-.75-.45-.65-.52-.73-.45-.67-.48-.74-.46-.71-.37-.59a227.79,227.79,0,0,0,430-30.86l-.08.1C466.69,313.69,461.14,318.76,456.9,322.78Z" transform="translate(-23.08 -22.42)"/><path class="cls-3" d="M34.9,322.57l-.06-.67-.05-.89,0-.66,0-.91,0-.62.08-.92,0-.61.16-.92.1-.61.24-.95.13-.55.36-1.06.14-.42.64-1.49A15.75,15.75,0,0,1,39.64,307l-.22-.83-.22-.82c-.27-1-.52-2-.76-3.05L38.11,301c-.25-1-.5-2.08-.71-3.11l-.19-.82-.19-.94c-.33-1.58-.64-3.14-1-4.72-.18-1-.39-2.08-.59-3.14l-.18-1-.2-1.19c-.24-1.47-.48-2.95-.7-4.46l-.13-.86-.15-1.15-.07-.46c-.18-1.37-.32-2.73-.48-4.11-.1-.88-.21-1.71-.31-2.56l0-.37-.08-.93c-.19-2-.36-4-.5-6l0-.61,0-.61c-.15-2.4-.27-4.77-.35-7.21v-.41c-.07-2.22-.1-4.46-.1-6.66v-1.21l.06-2.1c0-1.57.07-3.13.13-4.67,0-.57,0-1.15.05-1.72v-.39c.09-1.7.18-3.42.31-5.12l.07-1,.08-1c.1-1,.19-1.9.26-2.86.16-1.71.34-3.44.52-5.16l.13-1.07,0-.32c.15-1.31.32-2.57.5-3.85l.14-.86.29-1.9c.16-1,.31-1.91.46-2.88l.34-2.09,0-.18c.18-.95.38-1.92.56-2.87s.37-1.86.55-2.76l.32-1.6.12-.59c.35-1.61.74-3.2,1.13-4.79.06-.3.12-.59.19-.88l.22-.93.16-.65c.34-1.35.73-2.7,1.1-4.06l.57-2.15.26-.93c.64-2.19,1.3-4.4,2-6.56l0-.19c1.72-5.27,3.65-10.5,5.76-15.65l0-.1a218.52,218.52,0,0,1,38.77-61.9c1.29-1.44,2.6-2.9,4-4.33L92.63,99c.89-.94,1.79-1.88,2.69-2.78L97,94.61c.82-.82,1.65-1.64,2.47-2.41l1.8-1.69c.81-.79,1.61-1.52,2.42-2.26l1.88-1.71c.82-.71,1.61-1.42,2.44-2.12l1.94-1.64c.8-.69,1.62-1.37,2.43-2l2-1.61c.8-.67,1.62-1.32,2.45-2l2-1.55,2.53-1.87,2-1.48c.86-.63,1.72-1.21,2.58-1.85l2.05-1.4,2.68-1.78,2-1.32c1-.58,1.89-1.18,2.85-1.76l1.91-1.2c1-.65,2.12-1.25,3.18-1.86l1.64-1c1.55-.88,3.14-1.76,4.74-2.59l.25-.15c1.58-.87,3.19-1.69,4.8-2.5l1.69-.84c1.09-.53,2.18-1.07,3.28-1.59l2-.95c1-.44,2-.93,3-1.36l2.17-.91c1-.43,1.94-.85,2.91-1.25.75-.32,1.51-.62,2.26-.92.95-.37,1.92-.77,2.88-1.12l2.3-.87L177.47,44l2.35-.8,2.88-1,2.36-.75c1-.31,1.94-.6,2.9-.89l2.35-.7,3-.82c.77-.2,1.56-.42,2.33-.64,1-.25,2-.47,3-.74.77-.17,1.52-.37,2.29-.55,1.07-.24,2.12-.48,3.18-.7l2.16-.48c1.17-.24,2.33-.45,3.51-.66l1.86-.41c1.67-.27,3.36-.56,5.05-.81l.64-.1c1.69-.27,3.38-.51,5.08-.74l1.88-.22c1.18-.13,2.37-.29,3.53-.41.75-.06,1.49-.16,2.23-.22l3.21-.29c.79,0,1.57-.11,2.36-.14,1-.1,2.06-.16,3.08-.21l2.44-.12,3-.11c.83,0,1.66-.05,2.48-.05,1,0,2,0,3,0l1.15,0,1.59,0,2.16,0c1,0,2,0,2.93.08l2.13.06c1,0,2,.09,3,.16l2.06.1c1.06.06,2.11.14,3.16.24l1.88.14c1.19.1,2.39.22,3.57.35l1.46.15c3.4.35,6.76.8,10.11,1.35l1.41.22c1.19.19,2.4.38,3.61.59l1.8.37c1.06.19,2.12.41,3.19.64l2,.39c1,.21,2,.45,3,.67l2,.49,2.94.72,2.06.55c1,.27,1.92.5,2.89.77l2.06.59c1,.28,1.92.56,2.88.86l2,.64c.95.31,1.92.6,2.89.93l2,.66,2.93,1,1.91.7c1,.39,2.06.8,3.08,1.17l1.75.67c1.14.46,2.27,1,3.43,1.42l1.35.54c3.17,1.35,6.34,2.77,9.47,4.29l1.35.68c1.11.53,2.2,1.09,3.3,1.64l1.72.91c1,.5,1.95,1,2.9,1.53l1.87,1c.9.49,1.82,1,2.72,1.53l1.9,1.11c.87.51,1.75,1,2.63,1.58l1.93,1.16,2.55,1.62,1.93,1.25c.83.55,1.68,1.1,2.52,1.67l1.9,1.29c.83.59,1.67,1.17,2.51,1.78l1.84,1.33c.84.6,1.68,1.22,2.51,1.84l1.79,1.36c.87.64,1.73,1.34,2.58,2l1.66,1.29c1,.78,1.87,1.55,2.81,2.31l1.36,1.15c1.39,1.15,2.75,2.35,4.12,3.55a217.72,217.72,0,0,1,58.61,84.62.69.69,0,0,1,.05-.13c.83,2.13,1.61,4.29,2.37,6.42l.37,1.08c1.51,4.38,2.86,8.81,4.1,13.25l.25.94c.54,2,1.05,4,1.53,6l.21.94q.82,3.39,1.51,6.84l0,.12c.44,2.19.84,4.38,1.2,6.55l.21,1.2c.21,1.32.33,2.63.52,3.95.1.65.17,1.32.26,2,.35,2.55.76,5.1,1,7.66l.12,1.13c.18,2,.33,4,.47,5.95l.08,1c.13,2.3.24,4.59.33,6.89v.46c.07,2.1.08,4.19.1,6.29v1.38c0,2.24-.05,4.47-.14,6.7-.07,1.84-.17,3.68-.28,5.52v0l0,.29c0,.35,0,.7-.06,1.05l-.1,1.34c0,.46-.08.93-.11,1.39-.08,1-.17,1.94-.25,2.9l-.12,1.43-.12,1.2c-.23,2.24-.5,4.49-.81,6.73l-.11.8-.06.45-.15.9q-.3,2.07-.63,4.14l1.15,2.25c2.33-3.79,5.28-6.65,7.44-2.1l.42.94a230.23,230.23,0,0,0,2.56-50.38A227.6,227.6,0,0,0,250.78,22.42h0a227.64,227.64,0,0,0-227.29,241c.27,4.54.72,9,1.25,13.51a227.74,227.74,0,0,0,10.18,45.79Z" transform="translate(-23.08 -22.42)"/><path class="cls-4" d="M412.56,260.63c-1.14.51-2.29,1-3.45,1.48l5.16,5Z" transform="translate(-23.08 -22.42)"/><path class="cls-4" d="M342.56,287l7.63,3.48-2-6.15C346.33,285.27,344.44,286.15,342.56,287Z" transform="translate(-23.08 -22.42)"/><path class="cls-4" d="M467.88,274.73l.22-1.78.12-1.2.12-1.43C468.2,271.78,468.05,273.28,467.88,274.73Z" transform="translate(-23.08 -22.42)"/><path class="cls-4" d="M367.81,344.5,308,299.63l-.2-.34a220.24,220.24,0,0,1-74,6.31l-16,24.4c27.41,3.62,53.64,15.82,80.86,20.24a251.89,251.89,0,0,0,63.69,1.94c2.22-1.34,4.4-2.74,6.58-4.15Z" transform="translate(-23.08 -22.42)"/><path class="cls-4" d="M34,221.64l-.22,1.51,0,.32-.13,1.07C33.71,223.56,33.83,222.6,34,221.64Z" transform="translate(-23.08 -22.42)"/><path class="cls-4" d="M467.12,280.93l.06-.45.11-.8.21-1.77C467.37,278.93,467.24,279.94,467.12,280.93Z" transform="translate(-23.08 -22.42)"/><path class="cls-4" d="M468.63,266.94l.07-.91.1-1.34.05-.9C468.79,264.84,468.7,265.89,468.63,266.94Z" transform="translate(-23.08 -22.42)"/><polygon class="cls-4" points="43.18 345 42.33 343.71 42.73 344.34 43.01 344.78 43.79 345.97 43.18 345"/><polygon class="cls-4" points="424.76 322.14 424.89 321.91 425.5 320.61 425.56 320.45 424.76 322.14"/><polygon class="cls-4" points="421.58 328.5 421.86 327.99 422.05 327.61 421.58 328.5"/><polygon class="cls-4" points="58.71 366.38 57.63 365.11 58.42 366.07 58.96 366.68 58.71 366.38"/><path class="cls-4" d="M37,296.14l.19.94.19.82.34,1.44C37.48,298.26,37.26,297.21,37,296.14Z" transform="translate(-23.08 -22.42)"/><polygon class="cls-4" points="63.73 372.24 62.86 371.3 63.33 371.85 64.29 372.92 64.39 373.02 63.73 372.24"/><polygon class="cls-4" points="47.23 351.12 46.83 350.55 47.2 351.12 48.13 352.49 48.17 352.52 47.23 351.12"/><polygon class="cls-4" points="69.04 378.04 68.41 377.4 69.02 378.07 69.83 378.91 70.11 379.2 69.04 378.04"/><polygon class="cls-4" points="430.6 308.86 431.07 307.72 431.11 307.6 431.41 306.8 430.6 308.86"/><polygon class="cls-4" points="52.6 358.65 52.79 358.9 51.87 357.65 52.6 358.65"/><polygon class="cls-4" points="433.82 300.36 433.79 300.37 433.46 301.31 433.82 300.36"/><polygon class="cls-4" points="16.48 284.25 16.21 283.18 15.77 281.52 16.12 282.95 16.34 283.77 16.57 284.59 16.48 284.25"/><path class="cls-4" d="M32.47,237.88l-.13,1.75V240l0,.51C32.34,239.65,32.42,238.77,32.47,237.88Z" transform="translate(-23.08 -22.42)"/><path class="cls-4" d="M448.53,216.87l.7,1.88.13.62.27,1.29.06.77.06,1.16-.06.85-.09,1.11-.16.88-.22,1.07-.26.9-.33,1-.36.91-.41,1-.45.93-.47,1-.54.95-.52.91-.63,1-.55.82-.67,1-.57.78-.75,1-.37.46,7.18,14a217.39,217.39,0,0,0,14.9-48.66c1,4.62,1.8,9.27,2.48,13.94-.19-1.32-.31-2.63-.52-3.95l-.21-1.2c-.36-2.17-.76-4.36-1.2-6.55l0-.12q-.69-3.45-1.51-6.84l-.21-.94c-.48-2-1-4-1.53-6l-.25-.94c-1.24-4.44-2.59-8.87-4.1-13.25l-.37-1.08c-.76-2.13-1.54-4.29-2.37-6.42a.69.69,0,0,0-.05.13,219,219,0,0,1-22,40.46C438.91,210.45,445.66,210.79,448.53,216.87Z" transform="translate(-23.08 -22.42)"/><path class="cls-4" d="M468.82,263.55l.05-.16c.1-1.85.22-3.71.28-5.54.09-2.23.12-4.46.14-6.7v-1.38c0-2.1,0-4.19-.1-6.29V243c-.09-2.3-.2-4.59-.33-6.89l-.08-1c-.14-2-.29-4-.47-5.95l-.12-1.13c-.26-2.56-.67-5.11-1-7.66A220.43,220.43,0,0,1,468.82,263.55Z" transform="translate(-23.08 -22.42)"/><path class="cls-4" d="M34.24,280.42l0,.38.13.86.28,1.72C34.54,282.37,34.36,281.41,34.24,280.42Z" transform="translate(-23.08 -22.42)"/><path class="cls-4" d="M97.64,406.06l.71.75.84.8-1.28-1.27A2.37,2.37,0,0,1,97.64,406.06Z" transform="translate(-23.08 -22.42)"/><polygon class="cls-4" points="400.7 361.14 401.29 360.37 401.53 360.04 400.7 361.14"/><path class="cls-4" d="M41.33,193.1A220.06,220.06,0,0,0,46,245,218.45,218.45,0,0,0,64.27,281.2L97.4,244.72l.32-2.52a217.44,217.44,0,0,1-49.16-75.52l0,.1c-2.11,5.15-4,10.38-5.76,15.65l0,.19c-.72,2.19-1.37,4.4-2,6.61C40.89,190.52,41.12,191.8,41.33,193.1Z" transform="translate(-23.08 -22.42)"/><polygon class="cls-4" points="414.25 341.44 413.87 342.09 414.18 341.61 414.23 341.52 414.47 341.13 414.25 341.44"/><polygon class="cls-4" points="417.76 335.5 417.85 335.37 417.8 335.44 417.76 335.5"/><path class="cls-2" d="M66.26,367.42l.61,1,.48.78.77,1.17.14.2C67.59,369.5,66.92,368.46,66.26,367.42Z" transform="translate(-23.08 -22.42)"/><polygon class="cls-2" points="423.73 324.24 423.85 324.02 424.06 323.61 424.12 323.46 423.73 324.24"/><path class="cls-2" d="M74.62,379.61l.33.46.92,1.25.45.6.72.92C76.22,381.76,75.41,380.69,74.62,379.61Z" transform="translate(-23.08 -22.42)"/><path class="cls-2" d="M70.32,373.54l.93,1.41.07.1.54.77.68.94C71.78,375.67,71,374.62,70.32,373.54Z" transform="translate(-23.08 -22.42)"/><polygon class="cls-2" points="40.8 341.22 40.96 341.49 40.27 340.31 40.8 341.22"/><polygon class="cls-2" points="414.47 341.13 414.52 341.03 415.04 340.17 414.25 341.44 414.47 341.13"/><path class="cls-2" d="M100.54,408.87c1.62,1.54,3.24,3,4.92,4.54-1.95-1.74-3.86-3.49-5.72-5.29Z" transform="translate(-23.08 -22.42)"/><path class="cls-2" d="M86.81,394.67c-1-1.08-1.92-2.16-2.84-3.26l.23.29,1.07,1.24.67.78Z" transform="translate(-23.08 -22.42)"/><path class="cls-2" d="M79.17,385.59l.63.79.92,1.15,1.07,1.27C80.91,387.75,80,386.66,79.17,385.59Z" transform="translate(-23.08 -22.42)"/><path class="cls-2" d="M449.52,253.11l13.64,26.64c2.09-5.34,4-10.75,5.66-16.2a220.43,220.43,0,0,0-1.66-43.19c-.09-.65-.16-1.32-.26-2-.68-4.67-1.49-9.32-2.48-13.94A217.39,217.39,0,0,1,449.52,253.11Z" transform="translate(-23.08 -22.42)"/><path class="cls-2" d="M243.75,404.92a405.57,405.57,0,0,1-65.07-2.46C258,434.15,351.38,417.12,414.4,354l-2.13,1.24c-1.89,1.1-3.8,2.2-5.74,3.27s-3.7,2-5.56,3l0,0c-4.76,2.54-9.58,5-14.4,7.42C341.9,391.19,293.58,402.92,243.75,404.92Z" transform="translate(-23.08 -22.42)"/><path class="cls-2" d="M362.38,352.18c2.57-.27,5.11-.54,7.65-.88L369,348C366.78,349.44,364.6,350.84,362.38,352.18Z" transform="translate(-23.08 -22.42)"/><path class="cls-2" d="M46,245a219.6,219.6,0,0,0,13.32,41.66l4.94-5.43A218.45,218.45,0,0,1,46,245Z" transform="translate(-23.08 -22.42)"/><path class="cls-2" d="M92.12,400.47c-1.05-1.09-2.11-2.23-3.14-3.34l.68.76.53.55,1.3,1.38Z" transform="translate(-23.08 -22.42)"/><polygon class="cls-2" points="395.09 368.11 395.72 367.33 394.92 368.29 395.09 368.11"/><path class="cls-5" d="M39.29,305.6l.27,1.08.09.34a13.84,13.84,0,0,1,3.58-2.63l16.1-17.76a218.74,218.74,0,0,1-18-93.53c-.21-1.3-.44-2.58-.63-3.87v0l-.26.93-.57,2.15c-.37,1.36-.76,2.71-1.1,4.06l-.16.65-.22.93c-.07.29-.13.58-.19.88-.14.55-.28,1.11-.4,1.69-.25,1-.5,2.08-.73,3.1l-.12.59-.32,1.6c-.18.9-.36,1.84-.55,2.76s-.38,1.92-.56,2.87l0,.18-.34,2.09c-.15,1-.3,1.92-.46,2.88l-.29,1.9-.14.86c-.1.77-.19,1.57-.28,2.34-.14,1-.26,1.92-.39,2.9-.18,1.72-.36,3.45-.52,5.16-.07,1-.16,1.89-.26,2.86l-.08,1-.07,1c-.09,1.11-.13,2.24-.18,3.37,0,.89-.13,1.77-.15,2.65,0,.4,0,.8,0,1.21-.06,1.54-.11,3.1-.13,4.67l-.06,2.1v1.21q0,3.21.1,6.42v.65c.08,2.44.2,4.81.35,7.21l0,.61,0,.61.07.75c.13,1.73.27,3.5.43,5.25l.08.93,0,.37c.1.85.21,1.68.31,2.56.16,1.38.3,2.74.48,4.11l.07.46.12.77c.12,1,.3,1.95.44,3s.26,1.84.42,2.74l.2,1.19.18,1c.2,1.06.41,2.11.59,3.14.31,1.58.62,3.14,1,4.72.24,1.07.46,2.12.72,3.2l0,.06.06.26.29,1.35.33,1.32.42,1.61Z" transform="translate(-23.08 -22.42)"/><path class="cls-5" d="M468.82,263.55c-1.67,5.45-3.57,10.86-5.66,16.2l3.18,6.22v-.11c.22-1.34.43-2.68.63-4l.15-.9c.12-1,.25-2,.38-3s.25-2.11.38-3.18c.17-1.45.32-3,.46-4.41.08-1,.17-1.93.25-2.9,0-.16,0-.32,0-.48.07-1.05.16-2.1.22-3.15v-.15l0-.29v0Z" transform="translate(-23.08 -22.42)"/><path class="cls-5" d="M178.68,402.46A358.29,358.29,0,0,1,137,394.93c-25.7-6.29-52.4-15.78-73.63-32.26l0,.07.7,1.17.19.33,0,0,.93,1.48.22.37.84,1.29c.66,1,1.33,2.08,2,3.12l.3.47.45.67.9,1.29.41.57c.72,1.08,1.46,2.13,2.22,3.22l.45.63,1,1.41.63.81c.79,1.08,1.6,2.15,2.42,3.23l.45.57.89,1.17.79,1c.86,1.07,1.74,2.16,2.62,3.21l.25.3.73.9,1,1.16.22.25c.92,1.1,1.88,2.18,2.84,3.26l.66.77.09.1,1.19,1.33.23.26c1,1.11,2.09,2.25,3.14,3.34l1.08,1.15.39.42.65.67c.58.59,1.18,1.17,1.77,1.75l1.63,1.6a2.37,2.37,0,0,0,.27.28l1.28,1.27.55.51c1.86,1.8,3.77,3.55,5.72,5.29,1.34,1.21,2.72,2.39,4.11,3.54l1.4,1.17c.92.77,1.83,1.54,2.76,2.28l1.7,1.36c.85.65,1.69,1.32,2.53,2l1.84,1.4c.82.6,1.63,1.22,2.45,1.81l1.92,1.37c.81.56,1.63,1.13,2.44,1.72l2,1.34L131,433l2,1.3,2.48,1.54,2,1.23c.83.51,1.68,1,2.5,1.52l2,1.18,2.6,1.46,2,1.09,2.73,1.44,1.88,1,3,1.5,1.64.81,4.36,2,.63.27c1.47.65,2.95,1.31,4.43,1.94L167,452c1,.43,2.06.87,3.09,1.27l2,.75c.95.38,1.9.75,2.85,1.08l2.09.77c.92.33,1.83.65,2.76,1l2.14.72c.91.29,1.82.6,2.72.88l2.2.69c.9.25,1.8.55,2.72.83l2.21.6c.91.27,1.83.5,2.73.74.74.19,1.49.38,2.22.59.91.23,1.84.44,2.77.68l2.18.52c.94.23,1.89.42,2.83.63l2.16.46,2.93.57,2,.38c1.08.19,2.16.38,3.22.55l1.8.31c1.55.24,3.11.46,4.67.67l.65.08c1.57.23,3.13.42,4.71.58l1.79.17,3.24.33,2.09.15c1,.09,2,.15,3,.22l2.2.11,2.85.16c.75,0,1.51,0,2.26.07.94,0,1.87.06,2.79.06l2.29,0c.88,0,1.74,0,2.62,0l3.11-.05c.78,0,1.58,0,2.36-.06l3.15-.12,2.32-.12c1-.07,2.14-.12,3.21-.2.74,0,1.47-.1,2.23-.16,1.13-.09,2.25-.19,3.37-.31l2.06-.19c1.25-.13,2.51-.27,3.77-.43l1.67-.19q5.41-.72,10.8-1.68l1.68-.33c1.22-.24,2.46-.46,3.69-.72l2-.43c1.11-.25,2.2-.5,3.3-.73.75-.21,1.46-.38,2.2-.54,1-.26,2.08-.51,3.12-.79l2.27-.61c1-.26,2-.56,3-.83.76-.23,1.53-.47,2.28-.68q1.5-.44,3-.93c.77-.23,1.54-.46,2.3-.73,1-.32,2-.63,3-1,.76-.25,1.51-.53,2.28-.8,1-.32,1.95-.69,2.92-1.05.76-.27,1.51-.56,2.26-.85,1-.37,1.95-.76,2.91-1.14l2.22-.9c1-.41,2-.83,2.94-1.26l2.15-.92c1-.43,2-.92,3.06-1.38l2-.91c1.11-.53,2.23-1.09,3.33-1.64l1.64-.79c1.63-.83,3.26-1.67,4.89-2.54l.08-.07c1.62-.86,3.23-1.74,4.84-2.66l1.59-.95c1.07-.62,2.14-1.23,3.2-1.88l1.9-1.17,2.87-1.8,2-1.3,2.7-1.79,2-1.41c.87-.59,1.73-1.22,2.59-1.84l2-1.46c.83-.62,1.69-1.24,2.53-1.91l2-1.53L387,421l2-1.63c.81-.66,1.62-1.37,2.43-2.05l2-1.65c.81-.7,1.62-1.39,2.42-2.13l1.88-1.7c.81-.74,1.64-1.47,2.42-2.23l1.8-1.7c.83-.81,1.66-1.61,2.48-2.43l1.66-1.64c.9-.91,1.79-1.84,2.68-2.77l1.37-1.43c1.32-1.42,2.65-2.84,3.95-4.35q1.73-1.92,3.44-3.95l.5-.59.79-.95.27-.33.48-.58,1.28-1.56,1.28-1.6,0-.06.75-.93.89-1.13.82-1.11.74-1,1.11-1.48.83-1.13,1.14-1.58.19-.26.17-.23L430,375l.87-1.22.49-.71,1.24-1.85.84-1.24.64-1,.05-.09.21-.32.17-.25.68-1.06c.54-.85,1.06-1.71,1.59-2.54l.14-.21.38-.65.79-1.27c.42-.74.85-1.43,1.27-2.17s.86-1.47,1.27-2.22l.18-.28,0-.07.05-.07.16-.26.22-.42.56-1c.43-.78.87-1.54,1.28-2.34l.79-1.44.56-1.08.16-.32.48-.9.35-.69.68-1.38.64-1.3.39-.77.64-1.33.8-1.69.35-.73.58-1.24.22-.46.2-.47.86-1.92.74-1.71.5-1.21.12-.27.12-.29.22-.49.25-.61.57-1.43.31-.75.81-2.07.14-.31.41-1.12c.51-1.31,1-2.61,1.44-3.9l.06-.15.33-.95-1.53,1.46c-12.13,11.69-26.45,21.19-40.94,29.71C351.38,417.12,258,434.15,178.68,402.46Z" transform="translate(-23.08 -22.42)"/><path class="cls-4" d="M218.26,238.33c1.22.33,2.45.63,3.7.93l15-14.71c-5.83.2-11.6.13-17.22-.19l-3.45,13.4Z" transform="translate(-23.08 -22.42)"/><path class="cls-4" d="M283,241.5c15.12-2.48,29.78-8.71,44.86-11.76,1.17-.55,2.33-1.12,3.46-1.7l4.44-33.28A164.06,164.06,0,0,1,293,215.17L275.1,242.55C277.73,242.25,280.36,241.9,283,241.5Z" transform="translate(-23.08 -22.42)"/><path class="cls-4" d="M233,45.54c-3.55.26-7.07.59-10.55,1h.1C226,46.13,229.47,45.8,233,45.54Z" transform="translate(-23.08 -22.42)"/><polygon class="cls-4" points="190.72 224.83 191.45 224.11 190.96 223.82 190.72 224.83"/><path class="cls-4" d="M376.7,124.83c1.79,24.53-11.8,47.86-35.25,65.78l13.49,23,.69-.51-.48-3.42,2.19,2.13c26.88-20.54,42.46-47.32,40.41-75.42C393.63,79.9,319.86,39.21,233,45.54,308.78,40,373.11,75.52,376.7,124.83Z" transform="translate(-23.08 -22.42)"/><path class="cls-4" d="M102.28,144.82c-2.59-35.52,27.06-68.54,72.17-86.26-1.16,0-2.33-.05-3.49,0a192.34,192.34,0,0,0-32.05,15h0c-.4.87-2.32,4.87-3.31,2.56l-.14-.46C101.38,97,80.8,127.3,83.14,159.35c1.19,16.23,8.14,31.17,19.48,44.08l4.85-38.26A60.65,60.65,0,0,1,102.28,144.82Z" transform="translate(-23.08 -22.42)"/><path class="cls-6" d="M144.85,125.33C143,99.62,164.71,75.75,197.62,63.15A80.41,80.41,0,0,0,187.24,60a71.15,71.15,0,0,0-12.79-1.44c-45.11,17.72-74.76,50.74-72.17,86.26a60.65,60.65,0,0,0,5.19,20.35l2-16.06,29.38-45.48,7.75,86.89,23.72-26.09C155.46,154.38,146,140.79,144.85,125.33Z" transform="translate(-23.08 -22.42)"/><path class="cls-6" d="M234.46,49.28a71.14,71.14,0,0,1,12,4.6c50.73-1,92.5,23.55,94.94,57.14,2.56,35.3-39.34,67.16-93.63,71.1a151.31,151.31,0,0,1-17.25.27l-10.84,42c5.62.32,11.39.39,17.22.19l28.32-27.82,51.26-17.45L293,215.17a164.06,164.06,0,0,0,42.7-20.41l1.52-11.34,4.22,7.19c23.45-17.92,37-41.25,35.25-65.78C373.11,75.52,308.78,40,233,45.54c-3.52.26-7,.59-10.45,1A98.91,98.91,0,0,1,234.46,49.28Zm124.19,95.83a32.06,32.06,0,0,0,11.76-15.67,18.64,18.64,0,0,0-.1-12.38,23,23,0,0,0-1.25-3.7,27.91,27.91,0,0,0-1.68-2.3c-.49-.69-2.87-4.28-.68-3.34a8.06,8.06,0,0,1,3.92,3.91,29.19,29.19,0,0,1,2,6.07,47.16,47.16,0,0,1,1.4,12c0,1,0,1.9-.05,2.82,0,1.18-.1,2.33-.17,3.46a49.42,49.42,0,0,1-10,27.33,50.44,50.44,0,0,1-15.59,13.53c-5.2,2.84-11.46,5.13-18.79,4.46l-.17,0h-.08l-1.28-.18h-.13l-1.46-.25-.12-.07-1.57-.37-.09-.05-1.61-.52-.09,0-1.57-.7-.07-.05-1.48-.91,0,0-1.31-1.1,0,0-1.06-1.36c-2.4-3.78,1.82-5.61,4.19-6.45,4.62-1.63,10-2.07,14.87-3.38a24.69,24.69,0,0,0,9.76-5.06,19.69,19.69,0,0,0-3.7-2.12c-2.29-1.3-1.08-2.85-.24-3.79C346.26,150.16,353.53,148.76,358.65,145.11Z" transform="translate(-23.08 -22.42)"/><path class="cls-7" d="M144.85,125.33c1.13,15.46,10.61,29.05,25.49,39.1L200.72,131l57.63-23.36-23.8,41.31,5.76-4.44-9.77,37.92a151.31,151.31,0,0,0,17.25-.27c54.29-3.94,96.19-35.8,93.63-71.1C339,77.43,297.21,52.85,246.48,53.88a39.85,39.85,0,0,1,11,7.7l.13.13,0,0,0,0,.49.52.1.11.46.53.13.15.45.54.14.17.43.56.16.24.4.56.19.28.33.53.21.33.29.51.19.36.24.48.19.41.2.47.15.45.15.46.13.46.12.45.06.49.05.41,0,.51v.37l-.05.56,0,.33-.16.6-.07.27-.36.82c-2.21,4.19-8.36,2-11.57.56-6.29-2.71-11.92-6.75-18-9.83a48.06,48.06,0,0,0-15.21-4.73c-.08,1.59.66,2.73,1,4.22.6,2.62-2.32,2.58-4.23,2.46-5.76-.32-11.19-2.31-16.63-4.23C164.71,75.75,143,99.62,144.85,125.33Z" transform="translate(-23.08 -22.42)"/><polygon class="cls-2" points="129.59 235.74 130.19 242.51 143.91 215.33 129.59 235.74"/><polygon class="cls-2" points="235.27 85.17 200.16 135.18 211.47 126.49 235.27 85.17"/><path class="cls-8" d="M95.84,257.05l1.56-12.33L64.27,281.2l-4.94,5.43-16.1,17.76a12.37,12.37,0,0,1,2.16-1Z" transform="translate(-23.08 -22.42)"/><polygon class="cls-8" points="177.64 108.54 147.25 142.01 123.53 168.1 125.18 186.42 235.27 85.17 177.64 108.54"/><path class="cls-4" d="M45.39,303.42c9.55-3.37,23.08,1,31.28,4.11q6.17,2.34,12.15,5.11l7-55.59Z" transform="translate(-23.08 -22.42)"/><path class="cls-4" d="M176.9,218.12a38.12,38.12,0,0,1-3.87-5c-2.34-3.79-3.47-8-1.46-12.14,2.38-5,6.25,4.11,7,5.95.65,1.6.9,3.29,1.55,4.86l17.33-34.3,25.83-19.88,35.1-50L148.27,208.85l4.4,49.31L167,237.76Z" transform="translate(-23.08 -22.42)"/><path class="cls-2" d="M213.8,247.26l.25-1c-1-.51-1.92-1.08-2.87-1.61-1.8-1-3.59-2.12-5.35-3.22l-7.49,21Z" transform="translate(-23.08 -22.42)"/><path class="cls-2" d="M208.14,234.9a76.81,76.81,0,0,0,8.11,2.86l3.45-13.4,10.84-42,9.77-37.92Z" transform="translate(-23.08 -22.42)"/><path class="cls-8" d="M184,225.06c-2-1.9-4.62-4.27-7.06-6.94L167,237.76l-13.72,27.17,1.51,16.84,33.12-53.15C186.55,227.47,185.23,226.28,184,225.06Z" transform="translate(-23.08 -22.42)"/><path class="cls-8" d="M234.55,148.91l-11.3,8.69-25.83,19.88-17.33,34.3.59,1.21c1.67,2.7,4.49,5,6.64,7.39,1.15,1.22,2.31,2.41,3.51,3.53l49.48-79.44Z" transform="translate(-23.08 -22.42)"/><path class="cls-4" d="M205.83,241.42a135.34,135.34,0,0,1-17.93-12.8l-33.12,53.15,1.91,21.57,41.65-40.89Z" transform="translate(-23.08 -22.42)"/><path class="cls-4" d="M190.83,223.91a59.14,59.14,0,0,0,17.31,11l32.17-90.43Z" transform="translate(-23.08 -22.42)"/><path class="cls-2" d="M259.6,266.19c-3.13-1-6.24-2-9.33-3.12L198,329.21a53.4,53.4,0,0,1,6.1-.23,119,119,0,0,1,13.77,1l16-24.4Z" transform="translate(-23.08 -22.42)"/><path class="cls-2" d="M275.1,242.55,293,215.17l23.49-35.89-50.58,64C269,243.08,272.05,242.86,275.1,242.55Z" transform="translate(-23.08 -22.42)"/><path class="cls-2" d="M194,352.69c0-5.2-2.39-8.88-3.87-13.53l-9.28,11.71C185.14,351.6,189.52,352.22,194,352.69Z" transform="translate(-23.08 -22.42)"/><path class="cls-8" d="M239.53,242.36l77-63.08-51.26,17.45-28.32,27.82-15,14.71A150.39,150.39,0,0,0,239.53,242.36Z" transform="translate(-23.08 -22.42)"/><path class="cls-8" d="M218.3,248.59c-1.28-.66-2.53-1.36-3.77-2.06l-.73.73-15.46,15.19-41.65,40.89.57,6.43,69.4-56.86c-2.78-1.42-5.57-2.83-8.33-4.29Z" transform="translate(-23.08 -22.42)"/><path class="cls-4" d="M227.43,253.29l-.77-.38-69.4,56.86.82,9-13.51,21.64a163.75,163.75,0,0,0,36.26,10.43l9.28-11.71-.34-1c-1.79-6.42,2.92-8.38,8.19-9l52.31-66.14A214.85,214.85,0,0,1,227.43,253.29Z" transform="translate(-23.08 -22.42)"/><path class="cls-4" d="M265.92,243.24l50.58-64-77,63.08A158.32,158.32,0,0,0,265.92,243.24Z" transform="translate(-23.08 -22.42)"/><path class="cls-2" d="M157.26,309.77l-.57-6.43-1.91-21.57-1.51-16.84-.6-6.77-4.4-49.31-1.65-18.33-7.75-86.89-.07,234.28,1.78.84c1.32.61,2.65,1.12,4,1.69l13.51-21.64Z" transform="translate(-23.08 -22.42)"/><path class="cls-8" d="M109.49,149.11l-2,16.06-4.85,38.26-4.9,38.77-.32,2.52-1.56,12.33-7,55.59c1.3.59,2.59,1.21,3.88,1.81l46.17-210.82Z" transform="translate(-23.08 -22.42)"/><path class="cls-4" d="M92.7,314.45c15.54,7.43,30.47,16.27,46.1,23.46l.07-234.28Z" transform="translate(-23.08 -22.42)"/><polygon class="cls-2" points="375 290 379.8 292.19 366.75 272.5 375 290"/><polygon class="cls-2" points="332.83 192.91 331.86 191.22 318.37 168.19 314.14 161 334.36 203.84 332.83 192.91"/><path class="cls-8" d="M345.37,275.7l2.83,8.66,2,6.15,13,5.91-5-21.88Q351.77,275.31,345.37,275.7Z" transform="translate(-23.08 -22.42)"/><path class="cls-8" d="M367.81,344.5,369,348,370,351.3c1.84-.22,3.69-.49,5.53-.76l-.06-.26Z" transform="translate(-23.08 -22.42)"/><path class="cls-8" d="M331.13,229.12A79.2,79.2,0,0,1,342.76,228a29.88,29.88,0,0,1,4.76.29l-10.29-44.91-1.52,11.34L331.27,228Z" transform="translate(-23.08 -22.42)"/><path class="cls-8" d="M349.13,243l1.72-.2-.91-4A12.2,12.2,0,0,0,349.13,243Z" transform="translate(-23.08 -22.42)"/><polygon class="cls-4" points="352.48 328.11 352.73 328.07 352.42 327.86 352.48 328.11"/><path class="cls-4" d="M374.63,272c-5.46,1-11,1.9-16.49,2.54l5,21.88,34.92,16-8.24-17.49Z" transform="translate(-23.08 -22.42)"/><path class="cls-4" d="M351.79,233.87c-.51,1.8-1.28,3.34-1.85,5l.91,4c2.95-.35,5.84-.8,8.69-1.32l-2.1-15.24-20.21-42.84,10.29,44.91C350.46,228.84,352.82,230.2,351.79,233.87Z" transform="translate(-23.08 -22.42)"/><path class="cls-2" d="M414.27,267.1l-5.16-5c-2.19.91-4.42,1.74-6.66,2.54l16.11,18.73Z" transform="translate(-23.08 -22.42)"/><path class="cls-2" d="M378,236.24c1.05-.4,2.11-.83,3.15-1.28l-23.8-23.11-2.19-2.13Z" transform="translate(-23.08 -22.42)"/><path class="cls-8" d="M385.17,269.74c-3.5.85-7,1.58-10.54,2.26l15.21,22.93,13,19.68,11.93,5.45-27.5-50.86Z" transform="translate(-23.08 -22.42)"/><path class="cls-8" d="M357.44,226.26l2.1,15.24a107.61,107.61,0,0,0,11.3-2.76l-15.69-29,.48,3.42.28,2.19Z" transform="translate(-23.08 -22.42)"/><path class="cls-4" d="M378,236.24l-22.84-26.52,15.69,29C373.24,238,375.63,237.18,378,236.24Z" transform="translate(-23.08 -22.42)"/><path class="cls-4" d="M402.45,264.65c-5,1.76-10.11,3.26-15.14,4.55l27.5,50.86,15.3,7-11.55-43.69Z" transform="translate(-23.08 -22.42)"/><path class="cls-2" d="M428.8,212.64l-20.92-40.86,17,42.11C426.08,213.47,427.41,213,428.8,212.64Z" transform="translate(-23.08 -22.42)"/><path class="cls-2" d="M449.52,253.11l-7.18-14-.17.21-.81,1-.53.59-.83.94-.5.53-.85.9-.47.46-.84.84-.08,0,23.93,59.26c1.23-2.63,1.6-5.55,2.7-8.3a52.4,52.4,0,0,1,3.6-7.31L466.34,286l-3.18-6.22Z" transform="translate(-23.08 -22.42)"/><path class="cls-8" d="M414.27,267.1l4.29,16.28,11.55,43.69,4.53,2.09-12.48-73.41a106.73,106.73,0,0,1-9.6,4.88Z" transform="translate(-23.08 -22.42)"/><path class="cls-8" d="M407.88,171.78,400,213l2.92,11.06c4.23-2.22,8.48-4.38,12.8-6.37Z" transform="translate(-23.08 -22.42)"/><path class="cls-4" d="M423.26,214.48l1.64-.59-17-42.11,7.81,45.91C418.18,216.56,420.7,215.47,423.26,214.48Z" transform="translate(-23.08 -22.42)"/><path class="cls-4" d="M437.06,244.78s0,0,0,.05l-.32.3a81.84,81.84,0,0,1-14.55,10.62l12.48,73.41,1,.44A87.58,87.58,0,0,0,450,316.8c3.39-3.75,7.84-7.35,10.5-11.68l.68-1.29-23.93-59.26Z" transform="translate(-23.08 -22.42)"/><path class="cls-2" d="M430.11,327.07l-15.3-7-11.93-5.45-4.8-2.19-34.92-16-13-5.91L342.56,287l-24-10.95h-.93l-5.54-.32L421.21,338a94.3,94.3,0,0,0,14.4-8.37l-1-.44Z" transform="translate(-23.08 -22.42)"/><path class="cls-8" d="M294.71,274l13.13,25.3.2.34,59.77,44.87,7.69,5.78.32.22q4.46-.69,8.89-1.54l-82.09-74C300,274.66,297.34,274.35,294.71,274Z" transform="translate(-23.08 -22.42)"/><path class="cls-4" d="M302.62,274.94l82.09,74c5.52-1.08,11-2.3,16.35-3.73A120.27,120.27,0,0,0,421.21,338L312.13,275.75C308.94,275.56,305.77,275.27,302.62,274.94Z" transform="translate(-23.08 -22.42)"/><path class="cls-7" d="M63.25,362.61l.06.05h0c21.23,16.48,47.93,26,73.63,32.26a358.29,358.29,0,0,0,41.73,7.53,405.57,405.57,0,0,0,65.07,2.46c49.83-2,98.15-13.73,142.8-36,4.82-2.41,9.64-4.88,14.4-7.42a250.08,250.08,0,0,1-90.51,2.18c-31.75-5.15-62.15-20.9-94.64-21.25-6.63-.08-16.79.25-14.28,9.17,1.45,5.14,4.2,8.95,4.2,14.53-18.75-2-36.15-6.18-53.38-13.95-21.6-9.75-41.72-22.8-63.93-31.2-11.36-4.31-33-11.06-40,3.75-4.7,10-.16,21.33,6.48,30.81l.49.46C57.92,358.33,60.55,360.53,63.25,362.61Z" transform="translate(-23.08 -22.42)"/><polygon class="cls-7" points="17.81 316.2 17.89 316.33 18.26 316.91 17.81 316.2"/><path class="cls-8" d="M467.49,288.22a52.4,52.4,0,0,0-3.6,7.31c-1.1,2.75-1.47,5.67-2.7,8.3l-.68,1.29c-2.66,4.33-7.11,7.93-10.5,11.68a87.58,87.58,0,0,1-14.4,12.8,94.3,94.3,0,0,1-14.4,8.37,120.27,120.27,0,0,1-20.15,7.26c-5.37,1.43-10.83,2.65-16.35,3.73q-4.44.85-8.89,1.54l-.26,0c-1.84.27-3.69.54-5.53.76-2.54.34-5.08.61-7.65.88a251.89,251.89,0,0,1-63.69-1.94c-27.22-4.42-53.45-16.62-80.86-20.24a119,119,0,0,0-13.77-1,53.4,53.4,0,0,0-6.1.23c-5.27.59-10,2.55-8.19,9l.34,1c1.48,4.65,3.87,8.33,3.87,13.53-4.46-.47-8.84-1.09-13.15-1.82a163.75,163.75,0,0,1-36.26-10.43c-1.34-.57-2.67-1.08-4-1.69l-1.78-.84c-15.63-7.19-30.56-16-46.1-23.46-1.29-.6-2.58-1.22-3.88-1.81q-6-2.76-12.15-5.11c-8.2-3.12-21.73-7.48-31.28-4.11a12.37,12.37,0,0,0-2.16,1A13.84,13.84,0,0,0,39.65,307h0a15.75,15.75,0,0,0-2.93,4.26l-.64,1.49-.14.42-.36,1.06-.13.55-.24.95-.1.61-.16.92,0,.61-.08.92,0,.62,0,.91,0,.66.05.89.06.67v.12l.09.76.1.66.16.9.14.65.19.9.2.65.23.9.22.65.28.88.27.67.3.85.3.68.35.84.32.7.4.81.35.69.41.82.38.69.43.77.42.71.44.75.45.72.46.71.48.74.45.67.52.73.45.65.55.75.45.59.57.75.44.57.62.78.42.51.66.8.38.45.69.81.35.4.75.81.31.37.78.82.25.28.83.86.2.21.86.88.16.15.92.91.08.08.94.9v0c-6.64-9.48-11.18-20.82-6.48-30.81,7-14.81,28.61-8.06,40-3.75,22.21,8.4,42.33,21.45,63.93,31.2,17.23,7.77,34.63,12,53.38,13.95,0-5.58-2.75-9.39-4.2-14.53-2.51-8.92,7.65-9.25,14.28-9.17,32.49.35,62.89,16.1,94.64,21.25A250.08,250.08,0,0,0,401,361.5l0,0c1.86-1,3.72-2,5.56-3s3.85-2.17,5.74-3.27L414.4,354c14.49-8.52,28.81-18,40.94-29.71l1.53-1.46h0c4.24-4,9.79-9.09,13.94-14.79.63-.88,1.21-1.75,1.78-2.66a34.85,34.85,0,0,0,1.87-3.43c2.21-4.74,2.92-9.76.86-14.84l-.42-.94C472.77,281.57,469.82,284.43,467.49,288.22Z" transform="translate(-23.08 -22.42)"/><path class="cls-8" d="M214.53,246.53c1.24.7,2.49,1.4,3.77,2.06-2.4-1.29-4.79-2.6-7.12-4,.95.53,1.9,1.1,2.87,1.61Z" transform="translate(-23.08 -22.42)"/><path class="cls-8" d="M441.11,225.38C436.68,216,423,220.27,415.84,223c-14,5.34-26.74,13.58-40.4,19.74a106.7,106.7,0,0,1-33.73,8.81c0-3.51,1.75-5.94,2.65-9.16,1.6-5.65-4.84-5.85-9-5.83-20.54.25-39.76,10.21-59.82,13.45a158.59,158.59,0,0,1-57.2-1.36c2.76,1.46,5.55,2.87,8.33,4.29l.77.38a214.85,214.85,0,0,0,22.84,9.78c3.09,1.1,6.2,2.15,9.33,3.12a222.08,222.08,0,0,0,35.11,7.8c2.63.36,5.26.67,7.91.95,3.15.33,6.32.62,9.51.81l5.54.32h.93a265.75,265.75,0,0,0,26.77-.38q6.4-.4,12.77-1.16c5.52-.64,11-1.5,16.49-2.54,3.52-.68,7-1.41,10.54-2.26l2.14-.54c5-1.29,10.12-2.79,15.14-4.55,2.24-.8,4.47-1.63,6.66-2.54,1.16-.48,2.31-1,3.45-1.48a106.73,106.73,0,0,0,9.6-4.88,81.84,81.84,0,0,0,14.55-10.62l.32-.3h0l.05-.05C441.23,238.79,444.07,231.64,441.11,225.38Z" transform="translate(-23.08 -22.42)"/><path class="cls-9" d="M370.84,238.74a107.61,107.61,0,0,1-11.3,2.76c-2.85.52-5.74,1-8.69,1.32l-1.72.2a12.2,12.2,0,0,1,.81-4.19c.57-1.62,1.34-3.16,1.85-5,1-3.67-1.33-5-4.27-5.54a29.88,29.88,0,0,0-4.76-.29,79.2,79.2,0,0,0-11.63,1.08c-1.11.19-2.22.4-3.32.62-15.08,3-29.74,9.28-44.86,11.76-2.59.4-5.22.75-7.85,1.05-3.05.31-6.11.53-9.18.69a158.32,158.32,0,0,1-26.39-.88,150.39,150.39,0,0,1-17.57-3.1c-1.25-.3-2.48-.6-3.7-.93l-2-.57a76.81,76.81,0,0,1-8.11-2.86,59.14,59.14,0,0,1-17.31-11c-1.2-1.12-2.36-2.31-3.51-3.53-2.15-2.38-5-4.69-6.64-7.39l-.59-1.21c-.65-1.57-.9-3.26-1.55-4.86-.72-1.84-4.59-10.91-7-5.95-2,4.19-.88,8.35,1.46,12.14a38.12,38.12,0,0,0,3.87,5c2.44,2.67,5.1,5,7.06,6.94,1.27,1.22,2.59,2.41,3.94,3.56a135.34,135.34,0,0,0,17.93,12.8c1.76,1.1,3.55,2.19,5.35,3.22,2.33,1.35,4.72,2.66,7.12,4l0,0a158.59,158.59,0,0,0,57.2,1.36c20.06-3.24,39.28-13.2,59.82-13.45,4.17,0,10.61.18,9,5.83-.9,3.22-2.65,5.65-2.65,9.16a106.7,106.7,0,0,0,33.73-8.81c13.66-6.16,26.38-14.4,40.4-19.74,7.18-2.7,20.84-7,25.27,2.41,3,6.26.12,13.41-4.05,19.4l.2-.21.08,0,.84-.84.47-.46.85-.9.5-.53.83-.94.53-.59.81-1,.17-.21.37-.46.75-1,.57-.78.67-1,.55-.82.63-1,.52-.91.54-.95.47-1,.45-.93.41-1,.36-.91.33-1,.26-.9.22-1.07.16-.88.09-1.11.06-.85-.06-1.16-.06-.77-.27-1.29-.13-.62-.7-1.88c-2.87-6.08-9.62-6.42-16-5.14-1.28.24-2.54.56-3.76.91-1.39.39-2.72.83-3.9,1.25l-1.64.59c-2.56,1-5.08,2.08-7.57,3.21-4.32,2-8.57,4.15-12.8,6.37-6.63,3.47-13.2,7.09-20,10.16l-1.73.74c-1,.45-2.1.88-3.15,1.28C375.63,237.18,373.24,238,370.84,238.74Z" transform="translate(-23.08 -22.42)"/><path class="cls-9" d="M437,244.83s0,0,0-.05l-.05.05Z" transform="translate(-23.08 -22.42)"/><path class="cls-8" d="M184,56c9.09,1.91,17.64,6.86,27,7.4,1.92.1,4.85.12,4.26-2.46-.37-1.52-1.11-2.65-1-4.26a49.4,49.4,0,0,1,15.21,4.74c6.08,3.07,11.7,7.12,18,9.85,3.22,1.39,9.35,3.61,11.56-.53,1.48-2.83.35-6.14-1.43-9l0,0h0l-.13-.13a39.85,39.85,0,0,0-11-7.7,71.14,71.14,0,0,0-12-4.6,98.91,98.91,0,0,0-11.92-2.73h-.1A115.12,115.12,0,0,0,203.8,45a101,101,0,0,0-41.64,8.47c-1.4.62-2.82,1.27-4.22,1.93A72.22,72.22,0,0,1,184,56Z" transform="translate(-23.08 -22.42)"/><path class="cls-9" d="M138.9,73.58h0a15.84,15.84,0,0,1,1.1-2.71,24.33,24.33,0,0,1,3.18-3.24,28.08,28.08,0,0,1,14.48-7.52A70,70,0,0,1,171,58.53c1.16,0,2.33,0,3.49,0A71.15,71.15,0,0,1,187.24,60a80.41,80.41,0,0,1,10.38,3.15c5.44,1.92,10.87,3.91,16.63,4.23,1.91.12,4.83.16,4.23-2.46-.36-1.49-1.1-2.63-1-4.22a48.06,48.06,0,0,1,15.21,4.73c6.09,3.08,11.72,7.12,18,9.83,3.21,1.39,9.36,3.63,11.57-.56l.36-.82.07-.27.16-.6,0-.33.05-.56v-.37l0-.51-.05-.41-.06-.49-.12-.45-.13-.46-.15-.46-.15-.45-.2-.47-.19-.41-.24-.48-.19-.36-.29-.51-.21-.33-.33-.53-.19-.28-.4-.56-.16-.24-.43-.56-.14-.17-.45-.54-.13-.15-.46-.53-.1-.11-.49-.52,0,0c1.78,2.84,2.91,6.15,1.43,9-2.21,4.14-8.34,1.92-11.56.53-6.3-2.73-11.92-6.78-18-9.85a49.4,49.4,0,0,0-15.21-4.74c-.08,1.61.66,2.74,1,4.26.59,2.58-2.34,2.56-4.26,2.46-9.35-.54-17.9-5.49-27-7.4a72.22,72.22,0,0,0-26.1-.59v0c-1.14.51-2.26,1.07-3.35,1.65a64.34,64.34,0,0,0-12.83,8.34,29.75,29.75,0,0,0-5.23,5.24,5.65,5.65,0,0,0-1.07,5l.14.46C136.58,78.45,138.5,74.45,138.9,73.58Z" transform="translate(-23.08 -22.42)"/><path class="cls-9" d="M257.57,61.71l0,0,0,0Z" transform="translate(-23.08 -22.42)"/><path class="cls-8" d="M363.07,145.94c-5.12,3.62-12.38,5-16.54,9.68-.84.91-2,2.46.22,3.79a20.08,20.08,0,0,1,3.71,2.09,24.27,24.27,0,0,1-9.76,5.08c-4.85,1.3-10.24,1.74-14.87,3.39-2.37.8-6.56,2.67-4.2,6.46,1.6,2.53,4.66,4,7.57,4.81h0l.17,0c7.33.67,13.59-1.62,18.79-4.46a50.44,50.44,0,0,0,15.59-13.53,49.42,49.42,0,0,0,10-27.33c.07-1.13.13-2.28.17-3.46A31.72,31.72,0,0,1,363.07,145.94Z" transform="translate(-23.08 -22.42)"/><path class="cls-9" d="M342.34,158.57a19.69,19.69,0,0,1,3.7,2.12,24.69,24.69,0,0,1-9.76,5.06c-4.85,1.31-10.25,1.75-14.87,3.38-2.37.84-6.59,2.67-4.19,6.45l1.06,1.36,0,0,1.31,1.1,0,0,1.48.91.07.05,1.57.7.09,0,1.61.52.09.05,1.57.37.12.07,1.46.25h.13l1.28.18h.08c-2.91-.81-6-2.28-7.57-4.81-2.36-3.79,1.83-5.66,4.2-6.46,4.63-1.65,10-2.09,14.87-3.39a24.27,24.27,0,0,0,9.76-5.08,20.08,20.08,0,0,0-3.71-2.09c-2.27-1.33-1.06-2.88-.22-3.79,4.16-4.64,11.42-6.06,16.54-9.68A31.72,31.72,0,0,0,374,132.49c0-.92.05-1.86.05-2.82a47.16,47.16,0,0,0-1.4-12,29.19,29.19,0,0,0-2-6.07,8.06,8.06,0,0,0-3.92-3.91c-2.19-.94.19,2.65.68,3.34a27.91,27.91,0,0,1,1.68,2.3,23,23,0,0,1,1.25,3.7,18.64,18.64,0,0,1,.1,12.38,32.06,32.06,0,0,1-11.76,15.67c-5.12,3.65-12.39,5-16.55,9.67C341.26,155.72,340.05,157.27,342.34,158.57Z" transform="translate(-23.08 -22.42)"/><line class="cls-10" x1="306.12" y1="158.82" x2="306.13" y2="158.82"/></svg>